# xmcd
#
# Track frame offsets:
#	150
#	19580
#	46771
#	74527
#	90371
#	115679
#	145458
#	172333
#	190980
#	210976
#	247259
#	268846
#	285427
#	299237
#
# Disc length: 4241 seconds
#
# Revision: 0
# Processed by: cddbd v1.5.2PL0 Copyright (c) Steve Scherf et al.
# Submitted via: EZCDAudioConverter 1.3.4.1
#
DISCID=dc108f0e
DTITLE=V/A - World Circuit Presents... 1/2
DYEAR=1900
DGENRE=
TTITLE0=Buena Vista Social Club - Chan Chan
TTITLE1=Ali Farka Touré and Ry Cooder - Soukora
TTITLE2=Cheikh Lô - Boul Di Tagale
TTITLE3=Radio Tarifa - Rumba Argelina
TTITLE4=Bellemou Messaoud - Rire Zarga Ouana
TTITLE5=Afro-Cuban All Stars - Amor Verdadero
TTITLE6=Ñico Saquito - Al Vaivén Mi Carreta
TTITLE7=Oumou Sangare - Mogo Te Diya Bee Ye
TTITLE8=Orlando Cachaíto López - Tumbanga
TTITLE9=Mustapha Baqbou - Yumala
TTITLE10=Guajiro Mirabal - El Rincón Caliente
TTITLE11=Black Umfolosi - Bazali Bhetu
TTITLE12=Omara Portuondo - Flor De Amor
TTITLE13=Abdel Gadir Salim - Mal Wa Ihtagab
EXTD=
EXTT0=
EXTT1=
EXTT2=
EXTT3=
EXTT4=
EXTT5=
EXTT6=
EXTT7=
EXTT8=
EXTT9=
EXTT10=
EXTT11=
EXTT12=
EXTT13=
PLAYORDER=
